<?xml version="1.0" standalone="no"?>
<!DOCTYPE svg PUBLIC "-//W3C//DTD SVG 20010904//EN"
 "http://www.w3.org/TR/2001/REC-SVG-20010904/DTD/svg10.dtd">
<svg version="1.0" xmlns="http://www.w3.org/2000/svg"
 width="751.000000pt" height="751.000000pt" viewBox="0 0 751.000000 751.000000"
 preserveAspectRatio="xMidYMid meet">
<metadata>
Created by potrace 1.14, written by Peter Selinger 2001-2017
</metadata>
<g transform="translate(0.000000,751.000000) scale(0.100000,-0.100000)"
fill="#000000" stroke="none">
<path d="M3217 7430 c15 -128 8 -391 -13 -565 -6 -45 -57 -299 -68 -335 -2 -8
-9 -36 -15 -61 -20 -89 -114 -366 -176 -520 -158 -390 -343 -749 -750 -1454
-54 -93 -106 -183 -115 -200 -9 -16 -40 -69 -69 -117 -28 -48 -51 -89 -51 -91
0 -2 -23 -44 -51 -93 -129 -223 -294 -543 -358 -694 -18 -41 -36 -84 -41 -95
-63 -139 -151 -419 -174 -560 -28 -166 -28 -383 0 -570 3 -22 7 -51 8 -65 5
-37 26 -137 42 -195 7 -27 16 -61 20 -75 62 -235 232 -573 392 -775 201 -257
467 -493 697 -621 354 -196 674 -300 1025 -331 158 -14 506 -7 580 12 8 2 35
6 60 9 88 11 264 54 376 91 708 238 1263 768 1519 1449 24 64 71 217 80 259 2
10 6 26 9 35 3 9 8 35 12 57 3 22 7 42 9 45 2 3 7 33 10 65 4 33 9 62 10 65 5
9 18 208 18 280 0 139 -19 271 -63 440 -15 60 -88 274 -110 325 -10 22 -31 69
-46 105 -31 71 -161 330 -214 425 -144 261 -427 697 -705 1090 -131 185 -526
733 -548 760 -11 14 -209 285 -227 312 -8 12 -81 113 -161 225 -169 235 -273
383 -309 438 -14 22 -47 72 -75 112 -27 40 -52 77 -55 83 -3 5 -39 62 -81 125
-41 63 -88 135 -103 160 -15 25 -32 54 -39 65 -62 101 -97 162 -171 295 l-86
155 7 -65z"/>
</g>
</svg>
